<svg width="177" height="177" viewBox="0 0 177 177" fill="none" xmlns="http://www.w3.org/2000/svg">
<circle cx="88.5" cy="88.5" r="88.5" fill="url(#paint0_linear)"/>
<path d="M124.269 134C120.06 134 115.672 132.881 111.104 130.642C106.537 128.313 101.299 124.06 95.3881 117.881L67.1791 88.3284V132.657H55.0896L55.0896 60.1194C55.0896 55.5522 54.4627 52.194 53.209 50.0448C51.9552 47.806 49.4478 46.6866 45.6866 46.6866H43V44H55.0896C58.403 44 60.8657 44.4478 62.4776 45.3433C64.1791 46.1493 65.3881 47.6716 66.1045 49.9104C66.8209 52.1493 67.1791 55.5522 67.1791 60.1194V86.3134L95.3881 58.1045L98.0746 55.2836C100.582 52.6866 102.687 50.6716 104.388 49.2388C106.09 47.7164 108.104 46.4627 110.433 45.4776C112.761 44.4925 115.358 44 118.224 44H124.94V47.3582C121.179 47.3582 117.91 48.0298 115.134 49.3731C112.358 50.6269 109.134 53.0896 105.463 56.7612L79.2687 82.9552L110.164 115.194C114.104 119.224 118.09 122.627 122.119 125.403C126.149 128.09 129.776 129.657 133 130.104V132.657C130.313 133.552 127.403 134 124.269 134Z" fill="white"/>
<defs>
<linearGradient id="paint0_linear" x1="87.0952" y1="177" x2="87.0952" y2="2.62222e-08" gradientUnits="userSpaceOnUse">
<stop stop-color="#139545"/>
<stop offset="1" stop-color="#6EBD41"/>
</linearGradient>
</defs>
</svg>
